<svg width="411" height="213.00000000000003" xmlns="http://www.w3.org/2000/svg">

 <g>
  <title>background</title>
  <rect fill="none" id="canvas_background" height="215" width="413" y="-1" x="-1"/>
 </g>
 <g>
  <title>Layer 1</title>
  <path id="svg_1" fill="white" d="m255.643672,140.131836l0,-1.926c-0.016,-2.4352 -1.55,-4.5985 -3.834,-5.4092l0,-2.2968c-0.007,-2.441 -1.542,-4.6132 -3.833,-5.4243l0,-29.6061c2.291,-0.8109 3.826,-2.983 3.833,-5.4243l0,-3.3975l3.493,-7.0209l5.529,-5.5573c0.748,-0.751 0.749,-1.9696 0.002,-2.7218c-0.108,-0.1088 -0.229,-0.2043 -0.36,-0.2843l-55.5823,-34.09119c-0.6125,-0.37633 -1.3829,-0.37633 -1.9952,0l-55.58294,34.09119c-0.90337,0.5527 -1.1902,1.7367 -0.64036,2.6447c0.07951,0.1314 0.17452,0.2529 0.28278,0.3614l5.52894,5.5573l3.49268,7.0209l0,3.3975c0.0074,2.441 1.5426,4.6132 3.8334,5.4241l0,29.606c-2.2908,0.8109 -3.8258,2.9831 -3.8334,5.4244l0,2.2968c-2.28429,0.8106 -3.81746,2.974 -3.83341,5.4084l0,1.927c-3.17415,0.003 -5.74658,2.589 -5.74995,5.779l0,3.853c-0.00023,1.063 0.85733,1.926 1.91568,1.926c-0.00023,0 0.00045,0 0,0l111.16708,0c1.058,0 1.916,-0.862 1.917,-1.925c0,0 0,-0.001 0,0l0,-3.854c-0.004,-3.19 -2.576,-5.776 -5.75,-5.779zm-7.667,-50.0867c-0.001,1.0635 -0.858,1.9254 -1.916,1.9263l-11.5004,0c-1.0581,-0.0011 -1.9157,-0.8628 -1.9166,-1.9263l0,-1.9263l15.333,0l0,1.9263zm-53.6661,35.0304l0,-29.6061c2.2908,-0.8109 3.8258,-2.983 3.8334,-5.4243l0,-1.9263l11.4999,0l0,1.9263c0.0074,2.441 1.5426,4.6132 3.8334,5.4241l0,29.606c-2.2908,0.8109 -3.8258,2.9831 -3.8334,5.4244l0,1.9263l-11.4999,0l0,-1.9263c-0.0076,-2.4411 -1.5428,-4.6132 -3.8334,-5.4241zm-32.5831,-33.1038c-1.0582,-0.0012 -1.9157,-0.8629 -1.9166,-1.9264l0,-1.9263l15.3333,0l0,1.9263c-0.0012,1.0635 -0.8585,1.9255 -1.9166,1.9264l-11.5001,0zm9.5831,3.8526l0,28.8961l-7.6666,0l0,-28.8961l7.6666,0zm3.8333,-0.3549c0.7078,-0.2526 1.3589,-0.6427 1.9166,-1.1481c0.5577,0.5054 1.2091,0.8955 1.9166,1.1479l0,29.606c-0.7077,0.2527 -1.3589,0.6428 -1.9166,1.1482c-0.5577,-0.5054 -1.209,-0.8955 -1.9166,-1.1482l0,-29.6058zm3.8334,35.0302c0.0011,-1.0635 0.8587,-1.9255 1.9166,-1.9264l11.4999,0c1.0581,0.0012 1.9157,0.8629 1.9166,1.9264l0,1.9263l-15.3331,0l0,-1.9263zm3.8332,-5.7792l0,-28.8961l7.6665,0l0,28.8961l-7.6665,0zm9.5833,-32.7487l-11.4999,0c-1.0581,-0.0012 -1.9157,-0.8629 -1.9166,-1.9264l0,-1.9263l15.3333,0l0,1.9263c-0.0011,1.0633 -0.8587,1.9252 -1.9168,1.9264zm21.0833,38.5279c0.0011,-1.0635 0.8584,-1.9255 1.9165,-1.9264l11.4999,0c1.0582,0.0012 1.9157,0.8629 1.9166,1.9264l0,1.9263l-15.333,0l0,-1.9263zm3.8331,-5.7792l0,-28.8961l7.6665,0l0,28.8961l-7.6665,0zm9.5833,-32.7487l-11.4999,0c-1.0581,-0.0012 -1.9156,-0.8629 -1.9165,-1.9264l0,-1.9263l15.3332,0l0,1.9263c-0.0011,1.0633 -0.8586,1.9252 -1.9168,1.9264zm1.9166,3.4977c0.7078,-0.2526 1.3589,-0.6427 1.9166,-1.1481c0.5577,0.5054 1.2091,0.8955 1.9166,1.1479l0,29.606c-0.7078,0.2527 -1.3589,0.6428 -1.9166,1.1482c-0.5577,-0.5054 -1.2091,-0.8955 -1.9166,-1.1482l0,-29.6058zm3.8334,35.0302c0.0011,-1.0635 0.8587,-1.9255 1.9166,-1.9264l11.4996,0c1.058,0.0012 1.916,0.8629 1.917,1.9264l0,1.9263l-15.3334,0l0.0002,-1.9263zm3.8334,-5.7792l0,-28.8961l7.6665,0l0,28.8961l-7.6665,0zm-82.13163,-48.6718l-2.95741,-2.9725l52.50584,-32.20325l52.506,32.20325l-2.958,2.9725l-48.5429,-30.02481c-0.6163,-0.38197 -1.3939,-0.38197 -2.0102,0l-48.54333,30.02481zm92.60943,0.5118l-86.1221,0l43.0611,-26.6338l43.061,26.6338zm-87.8758,7.7055l-1.9166,-3.8529l93.4634,0l-1.917,3.8529l-89.6298,0zm0.7318,46.2337c0.0011,-1.0635 0.8584,-1.9255 1.9165,-1.9264l11.4999,0c1.0582,0.0012 1.9157,0.8629 1.9166,1.9264l0,1.9263l-15.333,0l0,-1.9263zm97.749,17.3372l-107.33216,0l0,-1.926c0.00112,-1.063 0.85845,-1.925 1.91658,-1.926l40.24968,0c1.0586,0 1.9166,-0.863 1.9166,-1.927c0,-1.064 -0.8582,-1.926 -1.9166,-1.926l-36.4163,0l0,-1.926c0.0222,-1.084 0.9128,-1.946 1.9916,-1.927l91.8496,0c1.078,-0.019 1.969,0.843 1.991,1.927l0,1.926l-36.4161,0c-1.0585,0 -1.9165,0.862 -1.9165,1.926c0,1.064 0.858,1.927 1.9165,1.927l40.2501,0c1.058,0.001 1.915,0.863 1.916,1.926l0,1.926z"/>
 </g>
</svg>