<svg width="65" height="66" xmlns="http://www.w3.org/2000/svg">
 <g>
  <title>background</title>
  <rect x="-1" y="-1" width="67" height="68" id="canvas_background" fill="none"/>
 </g>

 <g>
  <title>Layer 1</title>
  <path d="m35.767061,58.422423l-34.59061,0c-0.31589,0 -0.61908,-0.1275 -0.84079,-0.35379c-0.22049,-0.2251 -0.34228,-0.53061 -0.33539,-0.84762c0.00458,-0.18149 0.13318,-4.4831 3.50791,-7.94959c2.69458,-2.76929 8.56289,-4.9184 11.71469,-6.07281c0.6777,-0.24808 1.21408,-0.4433 1.53689,-0.58118c1.3909,-0.5972 2.44309,-1.66782 2.81061,-2.86459c0.24469,-0.79603 0.26309,-3.08872 0.21601,-4.57383c-0.47553,-0.6662 -1.60691,-2.2984 -2.11231,-3.4263c-0.5571,-1.24398 -0.87179,-2.5235 -1.0303,-3.3172c-0.93622,-0.4078 -2.02622,-1.40478 -2.56952,-3.47c-0.66849,-2.5408 0.04251,-4.10519 0.8959,-4.92868c-0.29858,-1.02002 -0.7041,-2.89682 -0.86828,-5.91202c-0.28492,-5.20208 1.02908,-8.63069 4.39691,-11.46429c3.5412,-2.9818 8.90869,-2.65559 9.1326,-2.64529c0.12408,0.00459 3.71808,0.16659 6.608,2.42019c0.69949,0.1378 2.30417,0.526 3.31488,1.3232c3.59412,2.8347 3.70199,5.80739 3.4516,10.36619c-0.16309,3.0152 -0.5697,4.892 -0.86829,5.91202c0.85459,0.82349 1.56439,2.38788 0.89591,4.92868c-0.54441,2.06522 -1.63453,3.0622 -2.56952,3.47c-0.15851,0.79251 -0.47321,2.07322 -1.02909,3.31601c-0.50662,1.12909 -1.6379,2.76129 -2.11349,3.42749c-0.04822,1.48511 -0.02872,3.7789 0.216,4.57383c0.30319,0.98547 1.08539,1.88137 2.2042,2.52459c0.56387,0.32398 0.75808,1.043 0.43408,1.60578c-0.32498,0.5628 -1.04181,0.75351 -1.60568,0.4342c-1.63801,-0.94189 -2.80271,-2.3168 -3.28162,-3.8732c-0.4595,-1.49429 -0.33429,-5.02289 -0.30438,-5.71548c0.01028,-0.2331 0.0896,-0.45832 0.22738,-0.64661c0.42731,-0.58121 1.63449,-2.30649 2.07669,-3.29199c0.73282,-1.63791 0.97632,-3.42981 0.97861,-3.44702c0.077,-0.58118 0.56979,-1.0188 1.15671,-1.02338c-0.0195,-0.00232 0.85458,-0.12631 1.33578,-1.9538c0.60422,-2.29611 -0.39968,-2.75442 -0.41,-2.75781c-0.31699,-0.1091 -0.57199,-0.34811 -0.70178,-0.65701c-0.12979,-0.30789 -0.1218,-0.65817 0.02179,-0.9603c0.00342,-0.00568 0.75461,-1.7149 0.98901,-5.9946c0.25501,-4.65768 -0.06552,-6.42309 -2.5603,-8.39068c-0.60422,-0.47661 -1.97562,-0.81551 -2.54532,-0.9039c-0.21017,-0.03331 -0.40778,-0.12291 -0.57089,-0.25962c-2.2984,-1.91938 -5.44449,-2.07669 -5.4766,-2.07789c-0.0689,-0.00341 -4.68521,-0.2676 -7.4913,2.09511c-2.8107,2.36619 -3.81,5.04019 -3.56421,9.53698c0.23441,4.2797 0.9856,5.98893 0.99363,6.00501c0.13668,0.302 0.14129,0.6524 0.01028,0.95559c-0.13089,0.30442 -0.38129,0.54331 -0.6937,0.65131c-0.06781,0.0333 -1.00048,0.51691 -0.41119,2.759c0.4812,1.8263 1.35419,1.95029 1.3909,1.9549c0.58701,0.00461 1.0235,0.43881 1.1004,1.01999c0.00229,0.01831 0.24698,1.81021 0.9809,3.44931c0.44229,0.9866 1.64828,2.71069 2.07559,3.2908c0.13779,0.18829 0.2171,0.41351 0.22742,0.64661c0.02987,0.69259 0.15387,4.22119 -0.30441,5.71548c-0.5777,1.8757 -2.08359,3.45621 -4.1327,4.3349c-0.34921,0.14941 -0.92581,0.36182 -1.65402,0.6283c-2.76468,1.01312 -8.517,3.11972 -10.83838,5.50421c-1.7482,1.79638 -2.42242,3.8789 -2.682,5.15841l33.25479,0c0.65011,0 1.17621,0.5261 1.17621,1.17618c0,0.65012 -0.5261,1.17621 -1.17621,1.17621z" id="svg_5"/>
  <path d="m51.141261,65.922913c-7.82659,0 -14.19461,-6.36798 -14.19461,-14.19458c0,-7.82672 6.36802,-14.19461 14.19461,-14.19461c7.8267,0 14.19462,6.36789 14.19462,14.19461c0,7.8266 -6.36792,14.19458 -14.19462,14.19458zm0,-26.0369c-6.52871,0 -11.84219,5.31241 -11.84219,11.84232c0,6.52988 5.31348,11.84219 11.84219,11.84219c6.52881,0 11.84229,-5.31231 11.84229,-11.84219c0,-6.52991 -5.31348,-11.84232 -11.84229,-11.84232z" id="svg_6"/>
  <path d="m51.141261,59.573333c-0.65011,0 -1.1762,-0.526 -1.1762,-1.17621l0,-13.33661c0,-0.65008 0.52609,-1.17608 1.1762,-1.17608s1.17621,0.526 1.17621,1.17608l0,13.33661c0,0.65021 -0.52609,1.17621 -1.17621,1.17621z" id="svg_8"/>
  <path d="m57.810151,52.904423l-13.33768,0c-0.65021,0 -1.17621,-0.52601 -1.17621,-1.17609c0,-0.65021 0.526,-1.17621 1.17621,-1.17621l13.33768,0c0.65011,0 1.17621,0.526 1.17621,1.17621c0,0.65008 -0.5261,1.17609 -1.17621,1.17609z" id="svg_9"/>
 </g>
</svg>