<svg width="22" height="26" viewBox="0 0 22 26" fill="none" xmlns="http://www.w3.org/2000/svg">
<rect width="22" height="26" fill="#E5E5E5"/>
<g clip-path="url(#clip0)">
<rect x="-134" y="-688" width="411" height="731" rx="15" fill="white"/>
<rect x="-134" y="-17" width="205.5" height="60" fill="#303E84"/>
<path d="M17 19.25H5.75V11.125C5.75 8 8.25 5.5 11.375 5.5C14.5 5.5 17 8 17 11.125V19.25ZM19.5 18V11.125C19.5 7.2875 16.825 4.075 13.25 3.225V2.375C13.25 1.87772 13.0525 1.40081 12.7008 1.04917C12.3492 0.697544 11.8723 0.5 11.375 0.5C10.8777 0.5 10.4008 0.697544 10.0492 1.04917C9.69754 1.40081 9.5 1.87772 9.5 2.375V3.225C5.9125 4.075 3.25 7.2875 3.25 11.125V18L0.75 20.5V21.75H22V20.5L19.5 18ZM11.375 25.5C12.038 25.5 12.6739 25.2366 13.1428 24.7678C13.6116 24.2989 13.875 23.663 13.875 23H8.875C8.875 23.663 9.13839 24.2989 9.60723 24.7678C10.0761 25.2366 10.712 25.5 11.375 25.5Z" fill="white"/>
</g>
<defs>
<clipPath id="clip0">
<rect x="-134" y="-688" width="411" height="731" rx="15" fill="white"/>
</clipPath>
</defs>
</svg>
