<svg width="101" height="50" viewBox="0 0 101 50" fill="none" xmlns="http://www.w3.org/2000/svg">
<path d="M52.5519 49.0139C50.8475 49.0937 49.143 49.2798 47.4119 49.2798C44.216 49.2798 41.0468 49.2266 37.8509 49.0671C33.8028 48.8544 29.7814 48.6151 25.7599 48.2162C21.7118 47.844 17.6371 47.3654 13.6156 46.7804C11.0323 46.4082 8.47559 45.7966 5.9189 45.2116C3.92149 44.7596 1.63111 44.5735 1.01857 42.6325C0.406033 40.6649 0.672355 37.5805 1.17837 35.5065C1.76428 33.0337 2.35018 30.5609 3.17578 28.1679C3.89485 26.0673 4.72045 23.9668 5.81237 22.0523C7.43694 19.1807 9.24793 16.4154 11.1654 13.7299C12.2307 12.1877 13.5623 10.805 14.9206 9.50217C17.6903 6.89641 20.753 4.74267 24.1886 3.01437C28.8492 0.701096 33.7229 0.355435 38.6765 0.96699C41.7659 1.33924 44.722 2.4294 47.5717 3.86523C51.7263 5.99237 55.2684 8.75766 58.2246 12.3206C60.8878 15.5379 63.045 19.0477 64.5364 22.9564C65.6283 25.828 66.6137 28.6997 66.9599 31.7574C67.0931 33.0337 67.3062 34.31 67.6258 35.5597C67.7589 36.0383 68.1318 36.5701 68.5579 36.836C69.2503 37.288 70.0493 37.6869 70.8482 37.8198C72.8457 38.1921 74.8431 38.5643 76.8405 38.6973C80.4358 38.9366 84.0312 38.9632 87.6532 39.1493C90.2365 39.2822 92.8198 39.3886 95.3765 39.7342C96.7081 39.9204 98.093 40.399 99.2648 41.0371C100.383 41.6487 100.25 43.0845 99.0518 43.5631C97.2408 44.281 95.3765 44.8394 93.4856 45.2914C91.1686 45.8232 88.7717 46.1954 86.4281 46.5943C85.709 46.7272 84.9633 46.7804 84.2443 46.8336C80.2761 47.1527 76.9737 47.8972 72.3397 47.844C67.4393 47.7908 62.6455 48.429 57.7985 48.6151C56.0674 48.6683 54.3363 48.9873 52.6052 49.2C52.5785 49.2 52.5785 49.0937 52.5519 49.0139ZM62.9651 36.2244C63.045 36.2244 63.1515 36.2244 63.2314 36.1979C63.3113 35.9851 63.4179 35.7724 63.4445 35.5597C63.6575 33.0337 62.752 30.6939 62.3259 28.2742C62.1661 27.4234 61.9531 26.5725 61.6335 25.7748C60.7014 23.5147 59.716 21.2547 58.6773 19.0211C57.4256 16.3356 55.801 13.8628 53.7504 11.6825C51.8062 9.58193 49.4892 7.98657 46.9858 6.6837C45.308 5.83284 43.4437 5.22128 41.6327 4.6895C40.0348 4.23748 38.3569 4.05135 36.7324 3.81205C36.4927 3.78546 36.2264 4.05135 35.96 4.1843C36.1465 4.39701 36.3063 4.6895 36.546 4.79585C39.7418 6.1785 42.9909 7.37502 46.1069 8.89061C50.0751 10.8316 53.2444 13.783 55.4815 17.5853C56.893 19.9784 58.118 22.4778 59.2632 25.0037C60.0089 26.5991 60.5149 28.3274 61.0476 30.0025C61.4471 31.2788 61.74 32.6083 62.1129 33.9112C62.3259 34.7089 62.6722 35.4534 62.9651 36.2244Z" fill="white"/>
</svg>
