<svg width="43" height="43" viewBox="0 0 43 43" fill="none" xmlns="http://www.w3.org/2000/svg">
<path d="M39.1899 27.4015C37.798 26.1784 36.1099 25.1216 34.1722 24.2606C33.3439 23.8927 32.3746 24.2657 32.0067 25.0937C31.6389 25.9217 32.0119 26.891 32.8399 27.2592C34.4738 27.9853 35.8818 28.8623 37.0241 29.8663C38.4324 31.1038 39.2402 32.8956 39.2402 34.7833V37.8185C39.2402 38.7231 38.5042 39.4591 37.5996 39.4591H5.44336C4.53877 39.4591 3.80273 38.7231 3.80273 37.8185V34.7833C3.80273 32.8956 4.61055 31.1038 6.01886 29.8663C7.67647 28.4096 12.5061 25.0216 21.5215 25.0216C28.2157 25.0216 33.6621 19.5752 33.6621 12.881C33.6621 6.18678 28.2157 0.740356 21.5215 0.740356C14.8273 0.740356 9.38086 6.18678 9.38086 12.881C9.38086 16.7944 11.2426 20.2808 14.1265 22.5023C8.84958 23.6623 5.56705 25.8951 3.85304 27.4015C1.73593 29.2616 0.521484 31.952 0.521484 34.7833V37.8185C0.521484 40.5326 2.72928 42.7404 5.44336 42.7404H37.5996C40.3137 42.7404 42.5215 40.5326 42.5215 37.8185V34.7833C42.5215 31.952 41.307 29.2616 39.1899 27.4015ZM12.6621 12.881C12.6621 7.99596 16.6365 4.02161 21.5215 4.02161C26.4065 4.02161 30.3809 7.99596 30.3809 12.881C30.3809 17.766 26.4065 21.7404 21.5215 21.7404C16.6365 21.7404 12.6621 17.766 12.6621 12.881Z" fill="#303E84"/>
</svg>
