<svg width="76" height="30" viewBox="0 0 76 30" fill="none" xmlns="http://www.w3.org/2000/svg">
<path d="M18.8088 0.406891C21.685 0.805732 24.8543 0.991856 27.8903 1.70977C29.9677 2.21497 31.8852 3.41149 33.9092 4.28894C34.362 4.50166 34.868 4.68779 35.374 4.71438C36.5458 4.76755 37.7709 4.58142 38.9161 4.76755C40.4608 5.00685 41.6326 4.34212 42.9109 3.70397C44.6154 2.85311 46.3997 2.08202 48.2107 1.63C52.392 0.593018 56.6531 0.460071 60.9409 0.832323C63.8971 1.09822 66.9065 1.28434 69.6497 2.42769C70.6617 2.85312 71.5672 3.73056 72.2064 4.60801C72.6591 5.21957 72.9787 5.53864 73.751 5.53864C75.6685 5.56523 75.6685 5.59183 75.6685 7.50626C75.6685 8.59643 75.6419 9.68659 75.6685 10.7502C75.6685 11.6276 75.2691 12.1594 74.3369 12.1062C73.3782 12.053 73.0852 12.5317 73.0053 13.4357C72.6857 18.1686 71.1943 22.4761 68.3447 26.3316C67.4392 27.5547 66.081 27.8471 64.8292 28.2194C61.953 29.0968 58.9435 29.4159 55.9341 29.3627C52.6317 29.3096 49.3559 28.9639 46.3465 27.5015C45.4143 27.0495 44.6154 26.0922 44.0028 25.1882C41.2331 21.1466 39.9547 16.5998 39.7417 11.734C39.6884 10.112 37.7975 9.26116 36.4393 10.1918C36.173 10.3779 36.0398 10.8299 35.9599 11.1756C35.4006 13.9941 35.0544 16.8923 34.2821 19.6576C33.5364 22.3165 32.2048 24.7628 30.234 26.757C29.6214 27.3951 28.6627 27.8206 27.7838 28.0865C26.319 28.5385 24.801 28.9905 23.3096 29.0703C20.6996 29.2298 18.0631 29.3627 15.4531 29.0703C13.0828 28.8044 10.6859 28.2194 8.50209 27.3154C7.41017 26.8633 6.6112 25.4009 5.91876 24.2576C3.81482 20.801 2.643 17.0518 2.58974 12.9837C2.58974 12.2658 2.19025 12.053 1.57771 12.1328C0.485791 12.2658 0.139573 11.7074 0.166206 10.7236C0.192838 9.31433 0.166206 7.93169 0.166206 6.52245C0.166206 5.80454 0.405896 5.35252 1.20486 5.37911C2.29678 5.43229 3.01585 5.06003 3.62839 4.10281C4.61379 2.50745 6.37151 1.92249 8.07598 1.6566C11.5648 1.12481 15.027 0.832321 18.8088 0.406891ZM18.5691 5.69818C18.5691 5.59182 18.5424 5.48547 18.5424 5.37911C15.7727 5.75136 13.0296 6.12361 10.2598 6.49586C8.71515 6.70858 8.02271 7.45308 7.83628 8.99526C7.49006 11.6276 7.64986 14.2334 8.42219 16.7594C8.95484 18.4345 9.64727 20.083 10.4196 21.6518C10.7658 22.3165 11.4316 23.0345 12.1241 23.2738C13.5622 23.7524 15.0802 24.1246 16.5983 24.231C18.8088 24.3639 21.0725 24.3373 23.283 24.1246C24.8543 23.9651 26.5055 23.5928 27.4376 22.0507C28.13 20.8807 28.7958 19.6842 29.3019 18.4345C30.447 15.5894 30.6068 12.6114 30.447 9.58023C30.4204 9.10162 30.234 8.43689 29.8878 8.22417C28.8225 7.58603 27.7039 7.00106 26.5321 6.57563C23.9754 5.645 21.2856 5.51205 18.5691 5.69818ZM44.9882 11.3883C44.9882 14.5259 45.7073 17.1582 47.3851 20.801C48.3173 22.8218 49.9152 23.779 51.9925 24.098C54.8422 24.5235 57.7184 24.6298 60.5681 24.098C62.0595 23.8056 63.7639 23.779 64.7493 22.3165C65.4418 21.2796 66.081 20.1894 66.5603 19.0461C67.812 15.9351 67.8653 12.638 67.7321 9.36752C67.6789 8.14441 67.4392 6.94788 66.0011 6.60222C64.9091 6.33632 63.8172 6.04384 62.7253 5.96407C57.4521 5.51205 52.2056 5.11321 47.1454 7.32013C45.6807 7.95828 45.0149 8.6496 45.0149 10.245C44.9882 10.6438 44.9882 11.0161 44.9882 11.3883Z" fill="white"/>
</svg>
