<svg width="43" height="43" viewBox="0 0 43 43" fill="none" xmlns="http://www.w3.org/2000/svg">
<path d="M40.5918 38.4344V37.7309C40.586 36.8417 40.0261 36.0516 39.1918 35.7555V34.9167C39.1891 34.0252 38.6284 33.2319 37.7918 32.9356V22.123C38.6284 21.8268 39.189 21.0335 39.1918 20.1419V18.9011L40.4674 16.337L42.4866 14.3073C42.76 14.033 42.7604 13.588 42.4875 13.3133C42.4479 13.2735 42.4039 13.2387 42.3561 13.2095L22.0563 0.758751C21.8326 0.62131 21.5513 0.62131 21.3277 0.758751L1.0278 13.2095C0.697868 13.4113 0.593115 13.8437 0.793926 14.1753C0.822965 14.2233 0.857664 14.2677 0.897203 14.3073L2.91647 16.337L4.19204 18.9011V20.1419C4.19475 21.0334 4.75543 21.8268 5.59206 22.1229V32.9355C4.75543 33.2317 4.19483 34.025 4.19204 34.9166V35.7554C3.35779 36.0515 2.79785 36.8416 2.79203 37.7308V38.4343C1.63277 38.4356 0.693275 39.3798 0.692044 40.545V41.9521C0.691962 42.3406 1.00516 42.6556 1.39168 42.6557C1.3916 42.6557 1.39185 42.6557 1.39168 42.6557H41.9918C42.3784 42.6558 42.6917 42.341 42.6918 41.9525C42.6918 41.9526 42.6918 41.9524 42.6918 41.9525V40.545C42.6906 39.3799 41.7511 38.4356 40.5918 38.4344ZM37.7919 20.1419C37.7915 20.5303 37.4783 20.8451 37.0919 20.8455H32.8919C32.5055 20.8451 32.1923 20.5303 32.192 20.1419V19.4384H37.7919L37.7919 20.1419ZM18.192 32.9356V22.123C19.0287 21.8268 19.5893 21.0335 19.5921 20.1419V19.4384H23.792V20.1419C23.7947 21.0334 24.3554 21.8268 25.192 22.1229V32.9355C24.3554 33.2317 23.7948 34.025 23.792 34.9166V35.6201H19.5921V34.9166C19.5893 34.0251 19.0286 33.2318 18.192 32.9356ZM6.29211 20.8455C5.90566 20.8451 5.59247 20.5304 5.59214 20.142V19.4385H11.1921V20.142C11.1917 20.5304 10.8786 20.8452 10.4922 20.8455H6.29211ZM9.79203 22.2526V32.8059H6.99208V22.2526H9.79203ZM11.192 22.123C11.4505 22.0307 11.6883 21.8883 11.892 21.7037C12.0957 21.8883 12.3336 22.0307 12.592 22.1229V32.9355C12.3335 33.0278 12.0957 33.1703 11.892 33.3549C11.6883 33.1703 11.4504 33.0278 11.192 32.9355V22.123ZM12.5921 34.9166C12.5925 34.5282 12.9057 34.2134 13.292 34.2131H17.492C17.8784 34.2135 18.1916 34.5282 18.192 34.9166V35.6201H12.5921V34.9166ZM13.992 32.8059V22.2526H16.7919V32.8059H13.992ZM17.492 20.8455H13.292C12.9056 20.8451 12.5924 20.5304 12.5921 20.142V19.4385H18.192V20.142C18.1916 20.5303 17.8784 20.8451 17.492 20.8455ZM25.192 34.9166C25.1924 34.5282 25.5055 34.2134 25.8919 34.2131H30.0919C30.4783 34.2135 30.7915 34.5282 30.7919 34.9166V35.6201H25.192V34.9166ZM26.5919 32.8059V22.2526H29.3918V32.8059H26.5919ZM30.0919 20.8455H25.8919C25.5055 20.8451 25.1923 20.5304 25.192 20.142V19.4385H30.7919V20.142C30.7915 20.5303 30.4783 20.8451 30.0919 20.8455ZM30.7919 22.123C31.0503 22.0307 31.2882 21.8883 31.4918 21.7037C31.6955 21.8883 31.9334 22.0307 32.1918 22.1229V32.9355C31.9333 33.0278 31.6955 33.1703 31.4918 33.3549C31.2882 33.1703 31.0503 33.0278 30.7919 32.9355V22.123ZM32.1919 34.9166C32.1923 34.5282 32.5055 34.2134 32.8918 34.2131H37.0918C37.4783 34.2135 37.7915 34.5282 37.7918 34.9166V35.6201H32.1918L32.1919 34.9166ZM33.5919 32.8059V22.2526H36.3918V32.8059H33.5919ZM3.59601 15.0302L2.51591 13.9446L21.692 2.18337L40.868 13.9446L39.7879 15.0302L22.059 4.06458C21.834 3.92508 21.55 3.92508 21.3249 4.06458L3.59601 15.0302ZM37.4186 15.2171H5.9653L21.692 5.48994L37.4186 15.2171ZM5.32481 18.0313L4.62484 16.6241H38.7592L38.0592 18.0313H5.32481ZM5.59206 34.9166C5.59247 34.5282 5.90558 34.2134 6.29203 34.2131H10.492C10.8784 34.2135 11.1916 34.5282 11.192 34.9166V35.6201H5.59206V34.9166ZM41.2918 41.2486H2.09214V40.5451C2.09255 40.1567 2.40566 39.8419 2.79211 39.8416H17.492C17.8786 39.8416 18.192 39.5266 18.192 39.138C18.192 38.7495 17.8785 38.4345 17.492 38.4345H4.19213V37.731C4.20025 37.3351 4.5255 37.0203 4.91949 37.0274H38.4645C38.8584 37.0204 39.1838 37.3351 39.1919 37.731V38.4345H25.8919C25.5053 38.4345 25.192 38.7495 25.192 39.138C25.192 39.5266 25.5053 39.8416 25.8919 39.8416H40.5918C40.9783 39.842 41.2915 40.1567 41.2918 40.5451V41.2486Z" fill="#303E84"/>
</svg>
