<svg width="20" height="20" viewBox="0 0 20 20" fill="none" xmlns="http://www.w3.org/2000/svg">
<path d="M17.7613 12.8573C17.1386 12.3102 16.3836 11.8375 15.5169 11.4524C15.1463 11.2879 14.7128 11.4547 14.5482 11.8251C14.3837 12.1954 14.5505 12.629 14.9209 12.7937C15.6517 13.1185 16.2815 13.5108 16.7925 13.9598C17.4224 14.5134 17.7838 15.3149 17.7838 16.1592V17.5169C17.7838 17.9215 17.4545 18.2507 17.0499 18.2507H2.6664C2.26178 18.2507 1.93255 17.9215 1.93255 17.5169V16.1592C1.93255 15.3149 2.29389 14.5134 2.92382 13.9598C3.66527 13.3083 5.82555 11.7928 9.85816 11.7928C12.8525 11.7928 15.2887 9.35663 15.2887 6.36231C15.2887 3.36798 12.8525 0.931793 9.85816 0.931793C6.86384 0.931793 4.42765 3.36798 4.42765 6.36231C4.42765 8.1128 5.2604 9.67224 6.55038 10.666C4.19001 11.1848 2.72173 12.1835 1.95505 12.8573C1.00807 13.6894 0.464844 14.8928 0.464844 16.1592V17.5169C0.464844 18.7309 1.45239 19.7184 2.6664 19.7184H17.0499C18.2639 19.7184 19.2515 18.7309 19.2515 17.5169V16.1592C19.2515 14.8928 18.7083 13.6894 17.7613 12.8573ZM5.89536 6.36231C5.89536 4.17723 7.67309 2.3995 9.85816 2.3995C12.0432 2.3995 13.821 4.17723 13.821 6.36231C13.821 8.54738 12.0432 10.3251 9.85816 10.3251C7.67309 10.3251 5.89536 8.54738 5.89536 6.36231Z" fill="white"/>
</svg>
